<svg xmlns="http://www.w3.org/2000/svg" viewBox="0 0 300 237"><g fill="none" stroke-width="2"><path stroke="#e78387" d="M102.27 83.52q-3.64 3.75-6.78 8.16-.41.57.29.57h19.76a1.43 1.42 23.5 0 0 .97-.38c35.18-33.08 79.1-48.54 125.69-57.31q.5-.09-.01-.08c-48.83.98-104.63 12.71-139.92 49.04" vector-effect="non-scaling-stroke"/><path stroke="#8399c4" d="M79.09 131.36c-5.48 1.71-10.36-4.48-11.46-9.37a.86.85-4.5 0 0-.78-.66l-1.99-.1a.64.63.4 0 0-.68.66l.32 11.26a.74.74 0 0 0 .93.69l3.31-.89a1.63 1.58-40.6 0 1 .99.06c7.96 3.2 20.21.84 19.26-10.33-.7-8.27-9.4-8.73-14.42-11.75-4.85-2.93-4.44-9.38 1.44-10.12q2.83-.35 4.61 1.88 2.66 3.34 3.69 7.52a.72.72 0 0 0 .7.54H87a.5.5 0 0 0 .5-.5V99.56a.81.8-85.4 0 0-.67-.8q-1.68-.29-3.06.52a1.09 1.08 41.9 0 1-.99.05c-8.25-3.72-19.71.03-17.16 11.16 1.29 5.6 8.24 7.63 12.96 9.28q2.19.76 3.41 2.73c2.01 3.24.92 7.66-2.9 8.86m78.62 7.94c-4.77.71-7.94-.41-9.27-5.02a.64.63 67.8 0 1 .3-.73q13.79-7.77 9.39-23.81c-5.14-18.78-32.5-14.33-32.9 5.5q-.33 16.57 15.34 19.36a.7.7 0 0 1 .57.59q1 6.49 7.09 7.52c1.36.23 11.82 1.1 10.18-3.01a.65.65 0 0 0-.7-.4m-98.33-8.06c-3.65-.15-4.37-1.46-4.38-4.95q-.02-11.24.03-22.57a2.14 2.13-7.3 0 1 1.59-2.05c1.2-.32 4.12-.31 3.62-2.36a.73.72-6.5 0 0-.71-.56H44.09a.62.61 87.4 0 0-.61.67l.11 1.08a.84.83-.8 0 0 .79.76q2.11.11 3.75 1.3a.91.9-72 0 1 .37.73v25.94a1.76 1.76 0 0 1-1.49 1.74l-3.02.47a.57.56-4.1 0 0-.49.56v1.01a.51.51 0 0 0 .51.51l15.52.2a.72.71-.7 0 0 .73-.74l-.04-.89a.88.88 0 0 0-.84-.85m52.78-.47q-2.17-.4-2.16-2.61l.14-26.3a.6.59-89.5 0 1 .59-.59c7.72-.01 6.59 7.68 10.83 7.46a.99.99 0 0 0 .94-.99v-8.36a.63.62 90 0 0-.62-.63H91.75a.5.5 0 0 0-.5.5v8.62a.63.63 0 0 0 .63.63h1.93a.9.88 11.5 0 0 .82-.53c1.71-3.93 3.3-7.13 8.31-6.62a.63.63 0 0 1 .56.63l-.01 27.46a1.25 1.25 0 0 1-1.01 1.23c-1.26.25-4.73.39-4.56 2.22a.61.6-.5 0 0 .57.55q7.89.38 15.79.3c1.16-.01 1.89-.71 1.4-1.88a.98.97 83 0 0-.72-.57l-2.8-.52m73.31-15.73q-1-.25-.06-.68 7.05-3.31 5.38-9.84c-2.15-8.4-20.12-5.8-26.55-5.75a.61.6-11.6 0 0-.56.84q.84 1.99 3.13 2.17a1.8 1.8 0 0 1 1.66 1.79l-.02 25.87a.98.98 0 0 1-.65.92l-3.42 1.22a.83.82 83.7 0 0-.54.68l-.03.36a.63.63 0 0 0 .56.7q9.58.99 19.14.01c11.48-1.16 13.08-15.52 1.96-18.29" vector-effect="non-scaling-stroke"/><path stroke="#818fa9" d="M137.75 157.44v-6.16a.54.54 0 0 0-.72-.51q-2.51.89-5.11.12a.56.55-83.9 0 1-.39-.49l-.12-1.41a.59.59 0 0 0-.7-.53q-1.25.25-1 1.4a1.19 1.19 0 0 1-1.25 1.44l-6.14-.45q-.75-.05-.4.61 1.85 3.54.1 7.14a.43.43 0 0 0 .35.62l2.87.27q1.15.1.38-.77-.35-.4-.84-.56a.68.67 11.7 0 1-.46-.69l.3-4.74a.43.43 0 0 1 .65-.34l1.46.86a.64.64 0 0 0 .83-.15l.85-1.08a.65.64-55.8 0 1 .8-.16c.87.49.55 5.66.58 6.82a.71.71 0 0 0 .71.69l19.48-.14q.63 0 .25-.51l-.69-.91a1.4 1.35-64.8 0 1-.29-.85v-5.46a.5.5 0 0 0-.5-.5l-4.76.01a.67.66 2.4 0 1-.67-.72l.13-1.65a.8.8 0 0 1 .98-.71l4.08.98a.56.56 0 0 0 .65-.34l.3-.74a.51.51 0 0 0-.4-.69l-4.29-.56a1.94 1.94 0 0 0-1 .15q-2.28 1.03-2.01 3.62a.58.58 0 0 1-.68.63q-.58-.11-.89.31-.54.72.36.71h.57a.62.62 0 0 1 .63.62v4.83a1.07 1.04-19.4 0 1-.41.83q-1.62 1.25-3.22-.05a1.03.99-71.1 0 1-.37-.79m30.57.43a1.09 1.09 0 0 1-.32-.77V147a.51.5.6 0 0-.5-.5l-2.48-.01q-1.05-.01-.17.56 1.91 1.23 1.27 3.43a.66.66 0 0 1-.73.47c-5.29-.81-6.72 5.37-3.01 8.3a1.31 1.3-27.3 0 0 .89.28l5.55-.33q.77-.05.22-.6l-.72-.73" vector-effect="non-scaling-stroke"/><path stroke="#818fa9" d="M137.97 147.86a1.2 1.2 0 0 0-1.2-1.2 1.2 1.2 0 0 0-1.2 1.2 1.2 1.2 0 0 0 1.2 1.2 1.2 1.2 0 0 0 1.2-1.2" vector-effect="non-scaling-stroke"/><path stroke="#8399c4" d="m109.67 149.29.96 2.22q.88 2.05.88-.19l-.01-3.03a.72.71-86.4 0 0-.62-.71q-1.54-.22-3.12-.31c-6.64-.39-7.93 9.53-2.85 11.81q4.6 2.08 7.05-2.36.23-.41-.02-.69a.46.46 0 0 0-.68 0l-1.69 1.79a1.39 1.34-68.9 0 1-.95.44c-6.84.25-5.05-12.39.36-9.7a1.47 1.45 1.9 0 1 .69.73" vector-effect="non-scaling-stroke"/><path stroke="#818fa9" d="M180.25 157.19v-7.91a.72.71 86.9 0 1 .63-.71l.7-.08a.84.83-19.5 0 1 .8.38l1.13 1.85q.74 1.2.74-.21v-2.38a.63.62 90 0 0-.62-.63h-9a.62.62 0 0 0-.62.61l-.05 1.92q-.07 2.8 1.38-.03.95-1.86 2.28-1.61a.76.74 5.7 0 1 .61.73l.03 8.17a.91.89 76.5 0 1-.48.8l-1.01.54q-1.01.53.13.57l4.39.17q1.26.04.26-.72l-.91-.68a1 .97 19.3 0 1-.39-.78" vector-effect="non-scaling-stroke"/><path stroke="#e78387" d="M81.77 148.74c-1.88 14.51-2.06 29.02-.28 43.55q.01.08.07.02l.22-.19a.42.4 71.8 0 0 .13-.28q1.34-21.95 8.09-42.87a.56.55 8.8 0 0-.53-.72h-7.14a.57.56-85.9 0 0-.56.49" vector-effect="non-scaling-stroke"/><path stroke="#818fa9" d="m204.5 150.64-.01-1.46a.65.65 0 0 0-.62-.65l-.42-.03a.52.51-78.6 0 0-.51.35l-.83 2.53a.8.79-53.9 0 0 .11.72c.95 1.3.52 4.78.56 6.45a.76.76 0 0 0 .56.72q1.57.43 3.2.15 1.71-.3.05-.79l-1.6-.48a.73.72-82.3 0 1-.51-.68l-.07-5.08a.55.55 0 0 1 .63-.55l1.17.18a.48.48 0 0 0 .56-.49c-.03-.67-1.23-.6-1.66-.46a.46.46 0 0 1-.61-.43M115.55 155h3.18a1.3 1.3 0 0 0 1.25-1.69c-.69-2.21-2.79-3.18-4.84-2-4.32 2.5-2.04 10.76 4.66 7.29a.95.95 0 0 0 .47-1.14l-.13-.39q-.27-.82-.74-.1c-1.52 2.34-4.77 1.19-4.42-1.47a.58.57-86 0 1 .57-.5m38.53.07 4.01-.21a.72.71 88.3 0 0 .67-.72c.01-6.15-9.76-3.15-6.51 3.42 1.4 2.85 4.89 2.62 6.52.04a.19.18 40.9 0 0-.02-.23l-.22-.22a.34.34 0 0 0-.5.02c-1.74 1.97-4.72.94-4.36-1.72a.44.44 0 0 1 .41-.38m33.82.17 4.08-.35a.58.58 0 0 0 .52-.55q.08-2.12-1.68-3.24-2.87-1.83-4.52 1.15c-4.83 8.75 7.59 8.17 6.2 5.15a.37.37 0 0 0-.61-.1c-1.66 1.72-4.81.79-4.48-1.6a.55.54 1.3 0 1 .49-.46m7.91-2.26v-.27a.69.69 0 0 1 .57-.67q2.15-.41 2.83 1.46.28.79.54-.01.28-.85-.02-1.74a1.09 1.07 88.8 0 0-.71-.69c-2.24-.67-5.95.09-4.62 3.24a1.35 1.35 0 0 0 .66.69l3.54 1.69a.64.64 0 0 1 .29.87c-1.07 2.04-3.51.76-4.25-.99q-.36-.87-.58.04-.08.33-.1.65-.12 2.31 2.19 2.4 4.54.17 4.06-3.35a1.17 1.16 10 0 0-.62-.88l-3.38-1.76a.76.75 14.9 0 1-.4-.68m23.32 4.05.06-4.27q.01-.96.84-.46l1.78 1.07q.88.53.72-.48l-.16-1.12a.68.68 0 0 0-.64-.58l-4.95-.3q-.48-.03-.25.4 2.07 3.7.14 7.47a.37.37 0 0 0 .34.53l3.05-.05q.89-.01.25-.63l-.88-.85a.99.98 22.8 0 1-.3-.73" vector-effect="non-scaling-stroke"/><path stroke="#818fa9" d="M214.44 157.2c-1.67 2.19-4.72 1.14-4.6-1.55a.64.64 0 0 1 .62-.62l3.1-.11q3.07-.12 1.05-2.44c-5.24-5.99-9.9 5.61-3.6 6.98q2.2.48 3.93-1.48a.39.39 0 0 0 .08-.41l-.1-.3q-.18-.48-.48-.07" vector-effect="non-scaling-stroke"/><path stroke="#8399c4" d="M142.207 131.64a15.45 9.88 89.9 0 0 9.853-15.467 15.45 9.88 89.9 0 0-9.907-15.433 15.45 9.88 89.9 0 0-9.853 15.467 15.45 9.88 89.9 0 0 9.907 15.433m33.303-18.02c10.7 1.62 11.61-13.97.07-12.29a.69.68-4.5 0 0-.58.67v11.03a.6.6 0 0 0 .51.59m7.14 4.07q-3.42-1.8-7.34-1.05a.48.48 0 0 0-.38.47l.09 10.65q.03 3.46 3.47 3.15 8.17-.74 6.91-9.32-.39-2.65-2.75-3.9" vector-effect="non-scaling-stroke"/><path stroke="#818fa9" d="M136.001 152.715a.9.9 0 0 0-.914-.886l-2.72.043a.9.9 0 0 0-.885.914l.077 4.9a.9.9 0 0 0 .914.885l2.72-.043a.9.9 0 0 0 .885-.914l-.077-4.9m11.474.412a1.45 1.45 0 0 0-1.48-1.42l-1.34.029a1.45 1.45 0 0 0-1.419 1.48l.089 4.219a1.45 1.45 0 0 0 1.48 1.42l1.34-.029a1.45 1.45 0 0 0 1.419-1.48l-.089-4.219m16.971 5.304a3.27 2.11 89.2 0 0 2.064-3.3 3.27 2.11 89.2 0 0-2.156-3.24 3.27 2.11 89.2 0 0-2.064 3.3 3.27 2.11 89.2 0 0 2.156 3.24m-49.386-4.87q-.07.11-.06.26a.47.47 0 0 0 .53.43l2.2-.35a.56.55 73.5 0 0 .41-.77c-.64-1.44-2.59-1.62-2.93.14q-.01.07-.15.29m41.7-.32c.33-1.49-2.69-1.9-3.13.47a.46.46 0 0 0 .54.54l1.89-.34a.89.88.9 0 0 .7-.67m33.675-.566a1.6 1.11-18.8 0 0-1.873-.535 1.6 1.11-18.8 0 0-1.157 1.567 1.6 1.11-18.8 0 0 1.873.535 1.6 1.11-18.8 0 0 1.157-1.567m22.445-.204q-1.92-1.19-2.82.61-.69 1.39.84 1.16l1.67-.26q2.22-.33.31-1.51" vector-effect="non-scaling-stroke"/></g><path fill="#fff" d="M0 0h300v237H0V0Zm102.27 83.52q-3.64 3.75-6.78 8.16-.41.57.29.57h19.76a1.43 1.42 23.5 0 0 .97-.38c35.18-33.08 79.1-48.54 125.69-57.31q.5-.09-.01-.08c-48.83.98-104.63 12.71-139.92 49.04Zm-23.18 47.84c-5.48 1.71-10.36-4.48-11.46-9.37a.86.85-4.5 0 0-.78-.66l-1.99-.1a.64.63.4 0 0-.68.66l.32 11.26a.74.74 0 0 0 .93.69l3.31-.89a1.63 1.58-40.6 0 1 .99.06c7.96 3.2 20.21.84 19.26-10.33-.7-8.27-9.4-8.73-14.42-11.75-4.85-2.93-4.44-9.38 1.44-10.12q2.83-.35 4.61 1.88 2.66 3.34 3.69 7.52a.72.72 0 0 0 .7.54H87a.5.5 0 0 0 .5-.5V99.56a.81.8-85.4 0 0-.67-.8q-1.68-.29-3.06.52a1.09 1.08 41.9 0 1-.99.05c-8.25-3.72-19.71.03-17.16 11.16 1.29 5.6 8.24 7.63 12.96 9.28q2.19.76 3.41 2.73c2.01 3.24.92 7.66-2.9 8.86Zm78.62 7.94c-4.77.71-7.94-.41-9.27-5.02a.64.63 67.8 0 1 .3-.73q13.79-7.77 9.39-23.81c-5.14-18.78-32.5-14.33-32.9 5.5q-.33 16.57 15.34 19.36a.7.7 0 0 1 .57.59q1 6.49 7.09 7.52c1.36.23 11.82 1.1 10.18-3.01a.65.65 0 0 0-.7-.4Zm-98.33-8.06c-3.65-.15-4.37-1.46-4.38-4.95q-.02-11.24.03-22.57a2.14 2.13-7.3 0 1 1.59-2.05c1.2-.32 4.12-.31 3.62-2.36a.73.72-6.5 0 0-.71-.56H44.09a.62.61 87.4 0 0-.61.67l.11 1.08a.84.83-.8 0 0 .79.76q2.11.11 3.75 1.3a.91.9-72 0 1 .37.73v25.94a1.76 1.76 0 0 1-1.49 1.74l-3.02.47a.57.56-4.1 0 0-.49.56v1.01a.51.51 0 0 0 .51.51l15.52.2a.72.71-.7 0 0 .73-.74l-.04-.89a.88.88 0 0 0-.84-.85Zm52.78-.47q-2.17-.4-2.16-2.61l.14-26.3a.6.59-89.5 0 1 .59-.59c7.72-.01 6.59 7.68 10.83 7.46a.99.99 0 0 0 .94-.99v-8.36a.63.62 90 0 0-.62-.63H91.75a.5.5 0 0 0-.5.5v8.62a.63.63 0 0 0 .63.63h1.93a.9.88 11.5 0 0 .82-.53c1.71-3.93 3.3-7.13 8.31-6.62a.63.63 0 0 1 .56.63l-.01 27.46a1.25 1.25 0 0 1-1.01 1.23c-1.26.25-4.73.39-4.56 2.22a.61.6-.5 0 0 .57.55q7.89.38 15.79.3c1.16-.01 1.89-.71 1.4-1.88a.98.97 83 0 0-.72-.57l-2.8-.52Zm73.31-15.73q-1-.25-.06-.68 7.05-3.31 5.38-9.84c-2.15-8.4-20.12-5.8-26.55-5.75a.61.6-11.6 0 0-.56.84q.84 1.99 3.13 2.17a1.8 1.8 0 0 1 1.66 1.79l-.02 25.87a.98.98 0 0 1-.65.92l-3.42 1.22a.83.82 83.7 0 0-.54.68l-.03.36a.63.63 0 0 0 .56.7q9.58.99 19.14.01c11.48-1.16 13.08-15.52 1.96-18.29Zm-47.72 42.4v-6.16a.54.54 0 0 0-.72-.51q-2.51.89-5.11.12a.56.55-83.9 0 1-.39-.49l-.12-1.41a.59.59 0 0 0-.7-.53q-1.25.25-1 1.4a1.19 1.19 0 0 1-1.25 1.44l-6.14-.45q-.75-.05-.4.61 1.85 3.54.1 7.14a.43.43 0 0 0 .35.62l2.87.27q1.15.1.38-.77-.35-.4-.84-.56a.68.67 11.7 0 1-.46-.69l.3-4.74a.43.43 0 0 1 .65-.34l1.46.86a.64.64 0 0 0 .83-.15l.85-1.08a.65.64-55.8 0 1 .8-.16c.87.49.55 5.66.58 6.82a.71.71 0 0 0 .71.69l19.48-.14q.63 0 .25-.51l-.69-.91a1.4 1.35-64.8 0 1-.29-.85v-5.46a.5.5 0 0 0-.5-.5l-4.76.01a.67.66 2.4 0 1-.67-.72l.13-1.65a.8.8 0 0 1 .98-.71l4.08.98a.56.56 0 0 0 .65-.34l.3-.74a.51.51 0 0 0-.4-.69l-4.29-.56a1.94 1.94 0 0 0-1 .15q-2.28 1.03-2.01 3.62a.58.58 0 0 1-.68.63q-.58-.11-.89.31-.54.72.36.71h.57a.62.62 0 0 1 .63.62v4.83a1.07 1.04-19.4 0 1-.41.83q-1.62 1.25-3.22-.05a1.03.99-71.1 0 1-.37-.79Zm30.57.43a1.09 1.09 0 0 1-.32-.77V147a.51.5.6 0 0-.5-.5l-2.48-.01q-1.05-.01-.17.56 1.91 1.23 1.27 3.43a.66.66 0 0 1-.73.47c-5.29-.81-6.72 5.37-3.01 8.3a1.31 1.3-27.3 0 0 .89.28l5.55-.33q.77-.05.22-.6l-.72-.73Zm-30.35-10.01a1.2 1.2 0 0 0-1.2-1.2 1.2 1.2 0 0 0-1.2 1.2 1.2 1.2 0 0 0 1.2 1.2 1.2 1.2 0 0 0 1.2-1.2Zm-28.3 1.43.96 2.22q.88 2.05.88-.19l-.01-3.03a.72.71-86.4 0 0-.62-.71q-1.54-.22-3.12-.31c-6.64-.39-7.93 9.53-2.85 11.81q4.6 2.08 7.05-2.36.23-.41-.02-.69a.46.46 0 0 0-.68 0l-1.69 1.79a1.39 1.34-68.9 0 1-.95.44c-6.84.25-5.05-12.39.36-9.7a1.47 1.45 1.9 0 1 .69.73Zm70.58 7.9v-7.91a.72.71 86.9 0 1 .63-.71l.7-.08a.84.83-19.5 0 1 .8.38l1.13 1.85q.74 1.2.74-.21v-2.38a.63.62 90 0 0-.62-.63h-9a.62.62 0 0 0-.62.61l-.05 1.92q-.07 2.8 1.38-.03.95-1.86 2.28-1.61a.76.74 5.7 0 1 .61.73l.03 8.17a.91.89 76.5 0 1-.48.8l-1.01.54q-1.01.53.13.57l4.39.17q1.26.04.26-.72l-.91-.68a1 .97 19.3 0 1-.39-.78Zm-98.48-8.45c-1.88 14.51-2.06 29.02-.28 43.55q.01.08.07.02l.22-.19a.42.4 71.8 0 0 .13-.28q1.34-21.95 8.09-42.87a.56.55 8.8 0 0-.53-.72h-7.14a.57.56-85.9 0 0-.56.49Zm122.73 1.9-.01-1.46a.65.65 0 0 0-.62-.65l-.42-.03a.52.51-78.6 0 0-.51.35l-.83 2.53a.8.79-53.9 0 0 .11.72c.95 1.3.52 4.78.56 6.45a.76.76 0 0 0 .56.72q1.57.43 3.2.15 1.71-.3.05-.79l-1.6-.48a.73.72-82.3 0 1-.51-.68l-.07-5.08a.55.55 0 0 1 .63-.55l1.17.18a.48.48 0 0 0 .56-.49c-.03-.67-1.23-.6-1.66-.46a.46.46 0 0 1-.61-.43ZM115.55 155h3.18a1.3 1.3 0 0 0 1.25-1.69c-.69-2.21-2.79-3.18-4.84-2-4.32 2.5-2.04 10.76 4.66 7.29a.95.95 0 0 0 .47-1.14l-.13-.39q-.27-.82-.74-.1c-1.52 2.34-4.77 1.19-4.42-1.47a.58.57-86 0 1 .57-.5Zm38.53.07 4.01-.21a.72.71 88.3 0 0 .67-.72c.01-6.15-9.76-3.15-6.51 3.42 1.4 2.85 4.89 2.62 6.52.04a.19.18 40.9 0 0-.02-.23l-.22-.22a.34.34 0 0 0-.5.02c-1.74 1.97-4.72.94-4.36-1.72a.44.44 0 0 1 .41-.38Zm33.82.17 4.08-.35a.58.58 0 0 0 .52-.55q.08-2.12-1.68-3.24-2.87-1.83-4.52 1.15c-4.83 8.75 7.59 8.17 6.2 5.15a.37.37 0 0 0-.61-.1c-1.66 1.72-4.81.79-4.48-1.6a.55.54 1.3 0 1 .49-.46Zm7.91-2.26v-.27a.69.69 0 0 1 .57-.67q2.15-.41 2.83 1.46.28.79.54-.01.28-.85-.02-1.74a1.09 1.07 88.8 0 0-.71-.69c-2.24-.67-5.95.09-4.62 3.24a1.35 1.35 0 0 0 .66.69l3.54 1.69a.64.64 0 0 1 .29.87c-1.07 2.04-3.51.76-4.25-.99q-.36-.87-.58.04-.08.33-.1.65-.12 2.31 2.19 2.4 4.54.17 4.06-3.35a1.17 1.16 10 0 0-.62-.88l-3.38-1.76a.76.75 14.9 0 1-.4-.68Zm23.32 4.05.06-4.27q.01-.96.84-.46l1.78 1.07q.88.53.72-.48l-.16-1.12a.68.68 0 0 0-.64-.58l-4.95-.3q-.48-.03-.25.4 2.07 3.7.14 7.47a.37.37 0 0 0 .34.53l3.05-.05q.89-.01.25-.63l-.88-.85a.99.98 22.8 0 1-.3-.73Zm-4.69.17c-1.67 2.19-4.72 1.14-4.6-1.55a.64.64 0 0 1 .62-.62l3.1-.11q3.07-.12 1.05-2.44c-5.24-5.99-9.9 5.61-3.6 6.98q2.2.48 3.93-1.48a.39.39 0 0 0 .08-.41l-.1-.3q-.18-.48-.48-.07Z"/><path fill="#cf070e" d="M102.27 83.52c35.29-36.33 91.09-48.06 139.92-49.04q.51-.01.01.08c-46.59 8.77-90.51 24.23-125.69 57.31a1.43 1.42 23.5 0 1-.97.38H95.78q-.7 0-.29-.57 3.14-4.41 6.78-8.16Z"/><path fill="#073388" d="M67.63 121.99c1.1 4.89 5.98 11.08 11.46 9.37 3.82-1.2 4.91-5.62 2.9-8.86q-1.22-1.97-3.41-2.73c-4.72-1.65-11.67-3.68-12.96-9.28-2.55-11.13 8.91-14.88 17.16-11.16a1.09 1.08 41.9 0 0 .99-.05q1.38-.81 3.06-.52a.81.8-85.4 0 1 .67.8v10.69a.5.5 0 0 1-.5.5h-1.99a.72.72 0 0 1-.7-.54q-1.03-4.18-3.69-7.52-1.78-2.23-4.61-1.88c-5.88.74-6.29 7.19-1.44 10.12 5.02 3.02 13.72 3.48 14.42 11.75.95 11.17-11.3 13.53-19.26 10.33a1.63 1.58-40.6 0 0-.99-.06l-3.31.89a.74.74 0 0 1-.93-.69l-.32-11.26a.64.63.4 0 1 .68-.66l1.99.1a.86.85-4.5 0 1 .78.66Zm80.81 12.29c1.33 4.61 4.5 5.73 9.27 5.02a.65.65 0 0 1 .7.4c1.64 4.11-8.82 3.24-10.18 3.01q-6.09-1.03-7.09-7.52a.7.7 0 0 0-.57-.59q-15.67-2.79-15.34-19.36c.4-19.83 27.76-24.28 32.9-5.5q4.4 16.04-9.39 23.81a.64.63 67.8 0 0-.3.73Zm-6.233-2.64a15.45 9.88 89.9 0 0 9.853-15.467 15.45 9.88 89.9 0 0-9.907-15.433 15.45 9.88 89.9 0 0-9.853 15.467 15.45 9.88 89.9 0 0 9.907 15.433Zm-82.827-.4a.88.88 0 0 1 .84.85l.04.89a.72.71-.7 0 1-.73.74l-15.52-.2a.51.51 0 0 1-.51-.51V132a.57.56-4.1 0 1 .49-.56l3.02-.47a1.76 1.76 0 0 0 1.49-1.74v-25.94a.91.9-72 0 0-.37-.73q-1.64-1.19-3.75-1.3a.84.83-.8 0 1-.79-.76l-.11-1.08a.62.61 87.4 0 1 .61-.67h15.44a.73.72-6.5 0 1 .71.56c.5 2.05-2.42 2.04-3.62 2.36a2.14 2.13-7.3 0 0-1.59 2.05q-.05 11.33-.03 22.57c.01 3.49.73 4.8 4.38 4.95Zm52.78-.47 2.8.52a.98.97 83 0 1 .72.57c.49 1.17-.24 1.87-1.4 1.88q-7.9.08-15.79-.3a.61.6-.5 0 1-.57-.55c-.17-1.83 3.3-1.97 4.56-2.22a1.25 1.25 0 0 0 1.01-1.23l.01-27.46a.63.63 0 0 0-.56-.63c-5.01-.51-6.6 2.69-8.31 6.62a.9.88 11.5 0 1-.82.53h-1.93a.63.63 0 0 1-.63-.63v-8.62a.5.5 0 0 1 .5-.5h30.13a.63.62-90 0 1 .62.63v8.36a.99.99 0 0 1-.94.99c-4.24.22-3.11-7.47-10.83-7.46a.6.59-89.5 0 0-.59.59l-.14 26.3q-.01 2.21 2.16 2.61Zm73.31-15.73c11.12 2.77 9.52 17.13-1.96 18.29q-9.56.98-19.14-.01a.63.63 0 0 1-.56-.7l.03-.36a.83.82 83.7 0 1 .54-.68l3.42-1.22a.98.98 0 0 0 .65-.92l.02-25.87a1.8 1.8 0 0 0-1.66-1.79q-2.29-.18-3.13-2.17a.61.6-11.6 0 1 .56-.84c6.43-.05 24.4-2.65 26.55 5.75q1.67 6.53-5.38 9.84-.94.43.06.68Zm-9.96-1.42c10.7 1.62 11.61-13.97.07-12.29a.69.68-4.5 0 0-.58.67v11.03a.6.6 0 0 0 .51.59Zm7.14 4.07q-3.42-1.8-7.34-1.05a.48.48 0 0 0-.38.47l.09 10.65q.03 3.46 3.47 3.15 8.17-.74 6.91-9.32-.39-2.65-2.75-3.9Z"/><ellipse fill="#fff" rx="15.45" ry="9.88" transform="rotate(89.9 12.894 129.31)"/><path fill="#fff" d="M175.58 101.33c11.54-1.68 10.63 13.91-.07 12.29a.6.6 0 0 1-.51-.59V102a.69.68-4.5 0 1 .58-.67Zm7.07 16.36q2.36 1.25 2.75 3.9 1.26 8.58-6.91 9.32-3.44.31-3.47-3.15l-.09-10.65a.48.48 0 0 1 .38-.47q3.92-.75 7.34 1.05Z"/><path fill="#021f52" d="M138.12 158.23q1.6 1.3 3.22.05a1.07 1.04-19.4 0 0 .41-.83v-4.83a.62.62 0 0 0-.63-.62h-.57q-.9.01-.36-.71.31-.42.89-.31a.58.58 0 0 0 .68-.63q-.27-2.59 2.01-3.62a1.94 1.94 0 0 1 1-.15l4.29.56a.51.51 0 0 1 .4.69l-.3.74a.56.56 0 0 1-.65.34l-4.08-.98a.8.8 0 0 0-.98.71l-.13 1.65a.67.66 2.4 0 0 .67.72l4.76-.01a.5.5 0 0 1 .5.5v5.46a1.4 1.35-64.8 0 0 .29.85l.69.91q.38.51-.25.51l-19.48.14a.71.71 0 0 1-.71-.69c-.03-1.16.29-6.33-.58-6.82a.65.64-55.8 0 0-.8.16l-.85 1.08a.64.64 0 0 1-.83.15l-1.46-.86a.43.43 0 0 0-.65.34l-.3 4.74a.68.67 11.7 0 0 .46.69q.49.16.84.56.77.87-.38.77l-2.87-.27a.43.43 0 0 1-.35-.62q1.75-3.6-.1-7.14-.35-.66.4-.61l6.14.45a1.19 1.19 0 0 0 1.25-1.44q-.25-1.15 1-1.4a.59.59 0 0 1 .7.53l.12 1.41a.56.55-83.9 0 0 .39.49q2.6.77 5.11-.12a.54.54 0 0 1 .72.51v6.16a1.03.99-71.1 0 0 .37.79Zm-2.119-5.515a.9.9 0 0 0-.914-.886l-2.72.043a.9.9 0 0 0-.885.914l.077 4.9a.9.9 0 0 0 .914.885l2.72-.043a.9.9 0 0 0 .885-.914l-.077-4.9Zm11.474.411a1.45 1.45 0 0 0-1.48-1.42l-1.34.029a1.45 1.45 0 0 0-1.419 1.48l.089 4.219a1.45 1.45 0 0 0 1.48 1.42l1.34-.029a1.45 1.45 0 0 0 1.419-1.48l-.089-4.219Zm20.845 4.744.72.73q.55.55-.22.6l-5.55.33a1.31 1.3-27.3 0 1-.89-.28c-3.71-2.93-2.28-9.11 3.01-8.3a.66.66 0 0 0 .73-.47q.64-2.2-1.27-3.43-.88-.57.17-.56l2.48.01a.51.5.6 0 1 .5.5v10.1a1.09 1.09 0 0 0 .32.77Zm-3.874.56a3.27 2.11 89.2 0 0 2.064-3.3 3.27 2.11 89.2 0 0-2.156-3.24 3.27 2.11 89.2 0 0-2.064 3.3 3.27 2.11 89.2 0 0 2.156 3.24Z"/><circle cx="136.77" cy="147.86" r="1.2" fill="#021f52"/><path fill="#073388" d="M108.98 148.56c-5.41-2.69-7.2 9.95-.36 9.7a1.39 1.34-68.9 0 0 .95-.44l1.69-1.79a.46.46 0 0 1 .68 0q.25.28.02.69-2.45 4.44-7.05 2.36c-5.08-2.28-3.79-12.2 2.85-11.81q1.58.09 3.12.31a.72.71-86.4 0 1 .62.71l.01 3.03q0 2.24-.88.19l-.96-2.22a1.47 1.45 1.9 0 0-.69-.73Z"/><path fill="#021f52" d="m180.64 157.97.91.68q1 .76-.26.72l-4.39-.17q-1.14-.04-.13-.57l1.01-.54a.91.89 76.5 0 0 .48-.8l-.03-8.17a.76.74 5.7 0 0-.61-.73q-1.33-.25-2.28 1.61-1.45 2.83-1.38.03l.05-1.92a.62.62 0 0 1 .62-.61h9a.63.62-90 0 1 .62.63v2.38q0 1.41-.74.21l-1.13-1.85a.84.83-19.5 0 0-.8-.38l-.7.08a.72.71 86.9 0 0-.63.71v7.91a1 .97 19.3 0 0 .39.78Z"/><path fill="#cf070e" d="M81.49 192.29c-1.78-14.53-1.6-29.04.28-43.55a.57.56-85.9 0 1 .56-.49h7.14a.56.55 8.8 0 1 .53.72q-6.75 20.92-8.09 42.87a.42.4 71.8 0 1-.13.28l-.22.19q-.06.06-.07-.02Z"/><path fill="#021f52" d="M205.11 151.07c.43-.14 1.63-.21 1.66.46a.48.48 0 0 1-.56.49l-1.17-.18a.55.55 0 0 0-.63.55l.07 5.08a.73.72-82.3 0 0 .51.68l1.6.48q1.66.49-.05.79-1.63.28-3.2-.15a.76.76 0 0 1-.56-.72c-.04-1.67.39-5.15-.56-6.45a.8.79-53.9 0 1-.11-.72l.83-2.53a.52.51-78.6 0 1 .51-.35l.42.03a.65.65 0 0 1 .62.65l.01 1.46a.46.46 0 0 0 .61.43Zm-90.13 4.43c-.35 2.66 2.9 3.81 4.42 1.47q.47-.72.74.1l.13.39a.95.95 0 0 1-.47 1.14c-6.7 3.47-8.98-4.79-4.66-7.29 2.05-1.18 4.15-.21 4.84 2a1.3 1.3 0 0 1-1.25 1.69h-3.18a.58.57-86 0 0-.57.5Zm.08-1.94q-.07.11-.06.26a.47.47 0 0 0 .53.43l2.2-.35a.56.55 73.5 0 0 .41-.77c-.64-1.44-2.59-1.62-2.93.14q-.01.07-.15.29Zm38.61 1.89c-.36 2.66 2.62 3.69 4.36 1.72a.34.34 0 0 1 .5-.02l.22.22a.19.18 40.9 0 1 .02.23c-1.63 2.58-5.12 2.81-6.52-.04-3.25-6.57 6.52-9.57 6.51-3.42a.72.71 88.3 0 1-.67.72l-4.01.21a.44.44 0 0 0-.41.38Zm3.09-2.21c.33-1.49-2.69-1.9-3.13.47a.46.46 0 0 0 .54.54l1.89-.34a.89.88.9 0 0 .7-.67Zm30.65 2.46c-.33 2.39 2.82 3.32 4.48 1.6a.37.37 0 0 1 .61.1c1.39 3.02-11.03 3.6-6.2-5.15q1.65-2.98 4.52-1.15 1.76 1.12 1.68 3.24a.58.58 0 0 1-.52.55l-4.08.35a.55.54 1.3 0 0-.49.46Zm3.025-3.026a1.6 1.11-18.8 0 0-1.873-.535 1.6 1.11-18.8 0 0-1.157 1.567 1.6 1.11-18.8 0 0 1.873.535 1.6 1.11-18.8 0 0 1.157-1.567Zm5.775.986 3.38 1.76a1.17 1.16 10 0 1 .62.88q.48 3.52-4.06 3.35-2.31-.09-2.19-2.4.02-.32.1-.65.22-.91.58-.04c.74 1.75 3.18 3.03 4.25.99a.64.64 0 0 0-.29-.87l-3.54-1.69a1.35 1.35 0 0 1-.66-.69c-1.33-3.15 2.38-3.91 4.62-3.24a1.09 1.07 88.8 0 1 .71.69q.3.89.02 1.74-.26.8-.54.01-.68-1.87-2.83-1.46a.69.69 0 0 0-.57.67v.27a.76.75 14.9 0 0 .4.68Zm23.22 4.1.88.85q.64.62-.25.63l-3.05.05a.37.37 0 0 1-.34-.53q1.93-3.77-.14-7.47-.23-.43.25-.4l4.95.3a.68.68 0 0 1 .64.58l.16 1.12q.16 1.01-.72.48l-1.78-1.07q-.83-.5-.84.46l-.06 4.27a.99.98 22.8 0 0 .3.73Z"/><path fill="#021f52" d="M209.84 155.65c-.12 2.69 2.93 3.74 4.6 1.55q.3-.41.48.07l.1.3a.39.39 0 0 1-.08.41q-1.73 1.96-3.93 1.48c-6.3-1.37-1.64-12.97 3.6-6.98q2.02 2.32-1.05 2.44l-3.1.11a.64.64 0 0 0-.62.62Zm3.04-3.18q-1.92-1.19-2.82.61-.69 1.39.84 1.16l1.67-.26q2.22-.33.31-1.51Z"/><rect width="4.52" height="6.7" x="-2.26" y="-3.35" fill="#fff" rx=".9" transform="rotate(-.9 9947.026 -8438.924)"/><rect width="4.24" height="7.12" x="-2.12" y="-3.56" fill="#fff" rx="1.45" transform="rotate(-1.2 7486.503 -6864.445)"/><path fill="#fff" d="M115.21 153.27c.34-1.76 2.29-1.58 2.93-.14a.56.55 73.5 0 1-.41.77l-2.2.35a.47.47 0 0 1-.53-.43q-.01-.15.06-.26.14-.22.15-.29Zm38.42.44c.44-2.37 3.46-1.96 3.13-.47a.89.88.9 0 1-.7.67l-1.89.34a.46.46 0 0 1-.54-.54Z"/><ellipse fill="#fff" rx="3.27" ry="2.11" transform="rotate(89.2 3.53 160.936)"/><ellipse fill="#fff" rx="1.6" ry="1.11" transform="rotate(-18.8 557.133 -493.992)"/><path fill="#fff" d="M212.88 152.47q1.91 1.18-.31 1.51l-1.67.26q-1.53.23-.84-1.16.9-1.8 2.82-.61Z"/></svg>