<svg xmlns="http://www.w3.org/2000/svg" viewBox="0 0 310 310"><g fill="none" stroke-width="2"><path stroke="#cf6582" stroke-opacity=".902" d="m134.9 129.9 16.66.34q.5.01.85-.34c28.15-27.38 67.38-42.66 105.29-49.43q.35-.07.01-.18-1.38-.45-2.89-.29" vector-effect="non-scaling-stroke"/><path stroke="#cf6d88" stroke-opacity=".965" d="M254.82 80c-42.54.3-93.03 14.2-119.92 49.9" vector-effect="non-scaling-stroke"/><path stroke="#5a88a6" stroke-opacity=".902" d="m104.01 160.05-4.61-.02q-.72 0-.71.73l.2 9.69q.01.55.56.55h3.26a.5.49 1.8 0 0 .5-.46l.12-1.55q.07-.85.68-.26 2.53 2.47 6.21 2.85M116.39 138.88q-.92.17-.94.87" vector-effect="non-scaling-stroke"/><path stroke="#618daa" stroke-opacity=".965" d="M115.45 139.75q.47.51.22.98a.56.55-53.7 0 1-.87.14c-6.47-6.18-17.89-.5-15.89 8.66 1.9 8.66 16 6.06 16.14 13.16.15 7.73-12.66 6.07-11.04-2.64" vector-effect="non-scaling-stroke"/><path stroke="#618daa" stroke-opacity=".965" d="m116.39 138.88 3.18.15q.63.02.64.65l.13 8.96a.6.6 0 0 1-.61.61l-3.45-.04q-.72-.01-.81-.73c-1.61-13.23-17.77-2.55-7.78 2.18 5.71 2.71 13.79 3.43 13.41 11.87q-.4 8.91-10.88 9.05" vector-effect="non-scaling-stroke"/><path stroke="#5a88a6" stroke-opacity=".902" d="M160.72 169.47q5.85 2.97 13.25 1.82" vector-effect="non-scaling-stroke"/><path stroke="#618daa" stroke-opacity=".965" d="m173.97 171.29 11.09-.27a.66.64 86.7 0 0 .63-.72l-.26-2.53q-.07-.68-.75-.63l-5.74.47a.35.35 0 0 1-.27-.59c7.7-7.66 6.94-23.71-4.23-27.69-6.26-2.23-13.89-.4-17.5 5.43-4.77 7.7-3.79 19.03 3.78 24.71" vector-effect="non-scaling-stroke"/><path stroke="#5a88a6" stroke-opacity=".902" d="m78.14 170.9 13.1.02q.53 0 .66-.51.41-1.71-.27-3.34" vector-effect="non-scaling-stroke"/><path stroke="#618daa" stroke-opacity=".965" d="M91.63 167.07q-1.82.52-3.06.05-.57-.22-.57-.83V143.5a.75.75 0 0 1 .75-.75h2.5q.75 0 .75-.75v-2.25q0-.75-.75-.75H78.61q-.57 0-.57.57v2.36q0 .82.82.82h1.67a1.71 1.71 0 0 1 1.71 1.71l.01 22.01a.78.78 0 0 1-.78.78h-2.81a.54.54 0 0 0-.54.54l.02 3.11" vector-effect="non-scaling-stroke"/><path stroke="#5a88a6" stroke-opacity=".902" d="m188.81 138.73-.04 3.34q-.01.68.67.68h1.97a1.1 1.1 0 0 1 1.1 1.1l-.02 22.63a.65.65 0 0 1-.71.65l-2.17-.17a.67.66 10.5 0 0-.7.48q-.61 2.15.29 3.62" vector-effect="non-scaling-stroke"/><path stroke="#618daa" stroke-opacity=".965" d="M189.2 171.06c5.6.03 18.25 1.13 22.81-1.84 5.21-3.39 4.27-11.81-1.83-14.5q-.68-.29-.02-.62c8.49-4.23 4.67-15.47-4.93-14.98q-3.61.19-16.42-.39" vector-effect="non-scaling-stroke"/><path stroke="#5a88a6" stroke-opacity=".902" d="m131.14 170.94 13.8.02q.51.01.62-.49.71-3.35-1.07-3.31M141.54 143.16q2.53-.48 4.73-.01a.62.6-84.2 0 1 .48.6v5.5q0 .5.5.5H151q.5 0 .5-.5v-9.5q0-.75-.75-.75H125.9a.66.65-90 0 0-.65.66v9.47q0 .63.63.63l3.74-.02a.64.64 0 0 0 .63-.61l.25-6.04" vector-effect="non-scaling-stroke"/><path stroke="#618daa" stroke-opacity=".965" d="m141.54 143.16-.23 23.44q0 .54.54.55l2.64.01M131.14 170.94l-.1-3.01a.66.66 0 0 1 .66-.68h3.05q.5 0 .5-.5v-23.07q0-.64-.65-.64l-4.1.05" vector-effect="non-scaling-stroke"/><path stroke="#5a88a6" stroke-opacity=".902" d="m218.92 141.03.05 1.73a.34.34 0 0 0 .61.2q.86-1.05.04-2.28a1.47 1.47 0 0 0-2.65 1.18l.31 1.17q.11.45.44.12l.2-.2q.32-.32.16-.74-.32-.84.23-1.41a.35.35 0 0 1 .61.23" vector-effect="non-scaling-stroke"/><path stroke="#cf6582" stroke-opacity=".902" d="M109.99 210.78q.56 2.82 1.3-1.27" vector-effect="non-scaling-stroke"/><path stroke="#cf6d88" stroke-opacity=".965" d="M111.29 209.51q2.17-15.6 8.82-30.14a.44.43-78.3 0 0-.4-.62l-5.09.01a.71.69-83.8 0 0-.68.56c-2.39 12.01-2.76 20.84-3.95 31.46" vector-effect="non-scaling-stroke"/><path stroke="#5a88a6" stroke-opacity=".902" d="m156.26 180.62-.24.18M151.73 181.96l-.81.04M146 189.8q.04.13.2.28.13.13.28.13.21.01.47-.14M158.74 190.12l1.85.3M174.94 190.49l2.87-.3a.59.58-3.3 0 0 .52-.58l-.12-8.47q0-.49-.47-.62-.25-.08-.54-.03" vector-effect="non-scaling-stroke"/><path stroke="#618daa" stroke-opacity=".965" d="m177.2 180.49-.21 2.84q-.04.53-.57.46c-4.31-.63-4.32 5.02-1.48 6.7M160.59 190.42l-.2-4.65q-.02-.42.38-.53.68-.19.92-.83.21-.54-.32-.79l-.44-.2a.55.54-60.4 0 1-.22-.8l1.14-1.66a.54.54 0 0 0-.78-.74l-1.32 1.01M146.95 190.07l.28-4.15a.92.91 80.3 0 1 .54-.77l1.46-.64a1.2 1.2 0 0 1 1.68 1.01l.31 3.92q.05.62.64.77l1.28.32q.89.22.57-.64-.22-.6-.79-.76-.57-.15-.76-.71-.92-2.64.97-4 .58-.42-.05-.74-1.15-.58-1.35-1.72M156.02 180.8l-.2.22q-.71.77.34.96.16.03.3.13a.42.42 0 0 0 .55-.62l-.75-.87M158.74 190.12q1.24-3.09-.04-5.63-.24-.47.1-.87.94-1.08.95-2.39" vector-effect="non-scaling-stroke"/><path stroke="#618daa" stroke-opacity=".965" d="M150.92 182q.07 1.19-.46 1.68c-.43.4-2.96.03-3.92.29q-.5.13-.5.65l-.04 5.18M173.06 143.44c-14.37-7.99-17.68 23.55-4.86 24.25 11.24.62 11.91-20.34 4.86-24.25" vector-effect="non-scaling-stroke"/><path stroke="#5a88a6" stroke-opacity=".902" d="m198.51 143.64-.02 8.18a.89.89 0 0 0 .88.9l4.49.01a4.88 4.5.2 0 0 4.9-4.48v-.96a4.88 4.5.2 0 0-4.86-4.52l-4.49-.01a.89.89 0 0 0-.9.88M198.5 157.29v9.08a.8.8 0 0 0 .8.8h4.71a5.49 5.09 0 0 0 5.49-5.09v-.5a5.49 5.09 0 0 0-5.49-5.09h-4.71a.8.8 0 0 0-.8.8" vector-effect="non-scaling-stroke"/><path stroke="#618daa" stroke-opacity=".965" d="M163.5 180.99a.6.59-1.4 0 0-.48.5l-.03.26a.9.66-43.9 0 0 1.57-.21q.16-.78-1.06-.55M168.18 187.34l2.37.17a.63.63 0 0 0 .66-.5q.36-1.72-.86-2.84a2.06 2.06 0 0 0-3.2.52c-1.83 3.3 1.4 8.26 3.92 5.06a.49.49 0 0 0-.59-.74l-.85.41q-.66.31-1.1-.27l-.78-1.02a.5.49 73.7 0 1 .43-.79M164.476 184.294a.27.27 0 0 0-.263-.276l-.66-.015a.27.27 0 0 0-.276.264l-.133 5.859a.27.27 0 0 0 .263.276l.66.015a.27.27 0 0 0 .276-.264l.133-5.859M137.54 189.04c-5.86 1.09-5.27-7.89-.36-6.35a.43.43 0 0 0 .5-.63l-.41-.68q-.23-.38-.68-.35c-7.34.48-4.63 12.03 1.3 9.05a.55.55 0 0 0-.35-1.04" vector-effect="non-scaling-stroke"/><path stroke="#618daa" stroke-opacity=".965" d="M141.18 187.38q.87-.24 1.52.07a1.04 1.03 5.2 0 0 1.45-1.2q-.6-2.22-2.19-2.51c-4.24-.77-3.7 7.89.72 6.72q.81-.21 1.04-.95a.39.39 0 0 0-.43-.49l-1.69.28a.99.98 32.8 0 1-.42-1.92M156.73 184.69q.11-.17.09-.23a.73.69-55.1 0 0-1.37.29l-.15 4.94q-.02.69.65.56l.41-.08q.64-.13.57-.77-.25-2.24-.26-4.5 0-.11.06-.21M175.622 188.99a1.98 1.48 90.8 0 0 1.508-1.96 1.98 1.48 90.8 0 0-1.452-2 1.98 1.48 90.8 0 0-1.508 1.96 1.98 1.48 90.8 0 0 1.452 2M169.06 186.4a.63.63 0 0 0 .94-.55v-.56q0-.36-.34-.48-.89-.31-1.42.33-.46.55.16.9l.66.36" vector-effect="non-scaling-stroke"/><path stroke="#618daa" stroke-opacity=".965" d="M142.61 185.2q-1.29-.96-2 .36-.4.72.43.7l1.25-.03a.57.57 0 0 0 .32-1.03" vector-effect="non-scaling-stroke"/></g><path fill="#cbcccc" fill-opacity=".804" d="M151.07 0h7.75C242.03 3.48 305.62 66.41 310 149.58v10.21c-3.23 82.44-68.2 147.22-150.81 150.21h-8.24C67.38 307.06 2.14 241.09 0 157.67v-7.46C3.34 67.55 68.38 2.93 151.07 0ZM134.9 129.9l16.66.34q.5.01.85-.34c28.15-27.38 67.38-42.66 105.29-49.43q.35-.07.01-.18-1.38-.45-2.89-.29-5.09-.88-10.32-.49c-29.36 2.24-57.3 9.56-82.66 24.85q-15.04 9.07-27.11 24.91-.17.23-.11.51.05.3.28.12Zm-30.89 30.15-4.61-.02q-.72 0-.71.73l.2 9.69q.01.55.56.55h3.26a.5.49 1.8 0 0 .5-.46l.12-1.55q.07-.85.68-.26 2.53 2.47 6.21 2.85 8.98 1.39 11.25-6.55 1.29-4.52-1.21-8.23c-3.04-4.49-14.06-5.23-14.78-9.32-1.17-6.6 9.09-6.65 9.33.89a1.17 1.17 0 0 0 1.17 1.13h4.48a.7.7 0 0 0 .7-.7l.03-9.33q0-.64-.61-.8-2.28-.61-4.19.21-.92.17-.94.87l-.28.16q-.24.15-.48-.01c-6.1-4.13-14.85-2.14-16.38 5.62-1.53 7.77 4.6 10.57 10.69 12.26 13.1 3.65-.4 15.47-3.9 5.34q-.53-1.53-1.09-3.07Zm56.71 9.42q5.85 2.97 13.25 1.82l11.93.15a.88.88 0 0 0 .89-.94l-.22-2.94a.88.88 0 0 0-.81-.81l-4.07-.34a.73.73 0 0 1-.51-1.19c6.01-7.47 3.83-21.21-4.88-25.66-8.46-4.33-18.23-.87-21.49 8.2-2.3 6.39-1.94 18.87 5.91 21.71Zm-82.58 1.43 13.1.02q.53 0 .66-.51.41-1.71-.27-3.34-.55-.64-2.19-.6-.69.02-.69-.67v-21.82q0-.58.57-.49 1.74.28 3.08-1.01.44-.42.39-1.04l-.19-2.4q-.06-.79-.86-.79H78.32q-.74 0-.74.74v3.65a.87.86 0 0 0 .87.86H81q.5 0 .5.5v21.75q0 .75-.75.75h-2.26q-.48 0-.67.44-1.03 2.37.32 3.96Zm110.67-32.17-.04 3.34q-.01.68.67.68h1.97a1.1 1.1 0 0 1 1.1 1.1l-.02 22.63a.65.65 0 0 1-.71.65l-2.17-.17a.67.66 10.5 0 0-.7.48q-.61 2.15.29 3.62c5.03.26 22.3 1.77 25.05-3.04q4.65-8.15-2.72-13.43-.62-.45.04-.83l1.29-.74q.49-.28.77-.76c4.41-7.36-.28-13.75-8.23-14.04q-8.22-.29-16.59.51Zm-58.31 4.36 3.73.32q.52.05.52.57V166q0 .5-.5.5h-2.96q-.57 0-.68.56-.52 2.64.53 3.88l13.8.02q.51.01.62-.49.71-3.35-1.07-3.31-.74-.72-2.06-.72-.65.01-.65-.64l-.24-22.64q2.53-.48 4.73-.01a.62.6-84.2 0 1 .48.6v5.5q0 .5.5.5H151q.5 0 .5-.5v-9.5q0-.75-.75-.75H125.9a.66.65-90 0 0-.65.66v9.47q0 .63.63.63l3.74-.02a.64.64 0 0 0 .63-.61l.25-6.04Zm88.42-2.06.05 1.73a.34.34 0 0 0 .61.2q.86-1.05.04-2.28a1.47 1.47 0 0 0-2.65 1.18l.31 1.17q.11.45.44.12l.2-.2q.32-.32.16-.74-.32-.84.23-1.41a.35.35 0 0 1 .61.23Zm-108.93 69.75q.56 2.82 1.3-1.27 3.33-16.1 7.95-26.47 1.1-2.47 1.35-3.99a.69.69 0 0 0-.68-.8l-5.53.01a.94.93 6.6 0 0-.91.72q-3.68 15.76-3.48 31.8Zm49.76-29.55q-.69 1.05-1.41 1.3a.57.57 0 0 1-.73-.41q-.44-1.92-1.35-1.5l-.24.18q-.59-.18-1.01.07-.35.21-.23.6l.09.27a.92.91-69 0 1-1.66.74q-.64-1.09-1.48-.52l-.81.04q-1.37 1.77-4.1 1.19a.68.66 27 0 0-.65.2l-.92 1.01a.69.68-42.7 0 1-1.03-.04q-1.33-1.63-3.42-1.36-.58.08-.96.52-1.72 2.03-1.31 4.7a.38.37 1.7 0 1-.45.42l-3-.65q-.61-.13-.76-.73-.54-2.16.65-3.9a1.01.99 24.1 0 1 1.07-.4l1.15.28a1.26 1.26 0 0 0 .91-2.33c-7.78-4.24-9.38 14.19.41 9.52q.5-.24.99 0 2 .98 3.98.11.41-.18.67-.55.58-.87 1.85-.19.04.13.2.28.13.13.28.13.21.01.47-.14 1.01.14.76-1.83-.35-2.65 2.07-3.08.72-.13.72.6v3.29a1.31 1.29-68.2 0 0 .39.93q1.64 1.63 3.5.6.43-.23.86-.01.99.5 2.07-.08a.79.78 76 0 0 .41-.69q-.02-1.35-.21-2.69-.06-.44.06-.69.19-.38.62-.44a.51.5 86.6 0 1 .57.51l-.03 3.63 1.85.3q1.46-.77 2.63.42a.79.78 47.3 0 0 1.05.05l1.63-1.37q.31-.25.58.05 1.99 2.22 4.74 1.03.38-.17.49-.57l.35-1.17a.38.38 0 0 1 .71-.05q.83 1.79 2.17 1.68l2.87-.3a.59.58-3.3 0 0 .52-.58l-.12-8.47q0-.49-.47-.62-.25-.08-.54-.03-.99.5-.63 2.16a.43.43 0 0 1-.46.52q-2.6-.25-3.41 2.15a.47.46-44.7 0 1-.89 0l-.21-.66q-.15-.46-.55-.73c-1.51-.98-4.66-.86-5.28-1.37q-.41-.34-.26-1.03a.75.75 0 0 0-.56-.9l-3.91-.88a1.01.99-56.3 0 0-.81.17q-1.02.74-.48 1.31Z"/><path fill="#cacece" fill-opacity=".929" d="M254.82 80c-42.54.3-93.03 14.2-119.92 49.9q-.23.18-.28-.12-.06-.28.11-.51 12.07-15.84 27.11-24.91c25.36-15.29 53.3-22.61 82.66-24.85q5.23-.39 10.32.49Z"/><path fill="#d31246" d="M254.82 80q1.51-.16 2.89.29.34.11-.01.18c-37.91 6.77-77.14 22.05-105.29 49.43q-.35.35-.85.34l-16.66-.34c26.89-35.7 77.38-49.6 119.92-49.9Z"/><path fill="#cacece" fill-opacity=".929" d="M115.45 139.75q.47.51.22.98a.56.55-53.7 0 1-.87.14c-6.47-6.18-17.89-.5-15.89 8.66 1.9 8.66 16 6.06 16.14 13.16.15 7.73-12.66 6.07-11.04-2.64q.56 1.54 1.09 3.07c3.5 10.13 17-1.69 3.9-5.34-6.09-1.69-12.22-4.49-10.69-12.26 1.53-7.76 10.28-9.75 16.38-5.62q.24.16.48.01l.28-.16ZM173.97 171.29l11.09-.27a.66.64 86.7 0 0 .63-.72l-.26-2.53q-.07-.68-.75-.63l-5.74.47a.35.35 0 0 1-.27-.59c7.7-7.66 6.94-23.71-4.23-27.69-6.26-2.23-13.89-.4-17.5 5.43-4.77 7.7-3.79 19.03 3.78 24.71-7.85-2.84-8.21-15.32-5.91-21.71 3.26-9.07 13.03-12.53 21.49-8.2 8.71 4.45 10.89 18.19 4.88 25.66a.73.73 0 0 0 .51 1.19l4.07.34a.88.88 0 0 1 .81.81l.22 2.94a.88.88 0 0 1-.89.94l-11.93-.15ZM91.63 167.07q-1.82.52-3.06.05-.57-.22-.57-.83V143.5a.75.75 0 0 1 .75-.75h2.5q.75 0 .75-.75v-2.25q0-.75-.75-.75H78.61q-.57 0-.57.57v2.36q0 .82.82.82h1.67a1.71 1.71 0 0 1 1.71 1.71l.01 22.01a.78.78 0 0 1-.78.78h-2.81a.54.54 0 0 0-.54.54l.02 3.11q-1.35-1.59-.32-3.96.19-.44.67-.44h2.26q.75 0 .75-.75V144q0-.5-.5-.5h-2.55a.87.86 0 0 1-.87-.86v-3.65q0-.74.74-.74h13.42q.8 0 .86.79l.19 2.4q.05.62-.39 1.04-1.34 1.29-3.08 1.01-.57-.09-.57.49v21.82q0 .69.69.67 1.64-.04 2.19.6ZM189.2 171.06c5.6.03 18.25 1.13 22.81-1.84 5.21-3.39 4.27-11.81-1.83-14.5q-.68-.29-.02-.62c8.49-4.23 4.67-15.47-4.93-14.98q-3.61.19-16.42-.39 8.37-.8 16.59-.51c7.95.29 12.64 6.68 8.23 14.04q-.28.48-.77.76l-1.29.74q-.66.38-.04.83 7.37 5.28 2.72 13.43c-2.75 4.81-20.02 3.3-25.05 3.04Z"/><path fill="#005188" d="M115.45 139.75q.02-.7.94-.87l3.18.15q.63.02.64.65l.13 8.96a.6.6 0 0 1-.61.61l-3.45-.04q-.72-.01-.81-.73c-1.61-13.23-17.77-2.55-7.78 2.18 5.71 2.71 13.79 3.43 13.41 11.87q-.4 8.91-10.88 9.05-3.68-.38-6.21-2.85-.61-.59-.68.26l-.12 1.55a.5.49 1.8 0 1-.5.46h-3.26q-.55 0-.56-.55l-.2-9.69q-.01-.73.71-.73l4.61.02c-1.62 8.71 11.19 10.37 11.04 2.64-.14-7.1-14.24-4.5-16.14-13.16-2-9.16 9.42-14.84 15.89-8.66a.56.55-53.7 0 0 .87-.14q.25-.47-.22-.98Z"/><path fill="#cacece" fill-opacity=".929" d="M110.22 171.58q10.48-.14 10.88-9.05c.38-8.44-7.7-9.16-13.41-11.87-9.99-4.73 6.17-15.41 7.78-2.18q.09.72.81.73l3.45.04a.6.6 0 0 0 .61-.61l-.13-8.96q-.01-.63-.64-.65l-3.18-.15q1.91-.82 4.19-.21.61.16.61.8l-.03 9.33a.7.7 0 0 1-.7.7h-4.48a1.17 1.17 0 0 1-1.17-1.13c-.24-7.54-10.5-7.49-9.33-.89.72 4.09 11.74 4.83 14.78 9.32q2.5 3.71 1.21 8.23-2.27 7.94-11.25 6.55Z"/><path fill="#005188" d="M173.97 171.29q-7.4 1.15-13.25-1.82c-7.57-5.68-8.55-17.01-3.78-24.71 3.61-5.83 11.24-7.66 17.5-5.43 11.17 3.98 11.93 20.03 4.23 27.69a.35.35 0 0 0 .27.59l5.74-.47q.68-.05.75.63l.26 2.53a.66.64 86.7 0 1-.63.72l-11.09.27Zm-.91-27.85c-14.37-7.99-17.68 23.55-4.86 24.25 11.24.62 11.91-20.34 4.86-24.25ZM91.63 167.07q.68 1.63.27 3.34-.13.51-.66.51l-13.1-.02-.02-3.11a.54.54 0 0 1 .54-.54h2.81a.78.78 0 0 0 .78-.78l-.01-22.01a1.71 1.71 0 0 0-1.71-1.71h-1.67q-.82 0-.82-.82v-2.36q0-.57.57-.57h12.64q.75 0 .75.75V142q0 .75-.75.75h-2.5a.75.75 0 0 0-.75.75v22.79q0 .61.57.83 1.24.47 3.06-.05ZM141.54 143.16l-.23 23.44q0 .54.54.55l2.64.01q1.78-.04 1.07 3.31-.11.5-.62.49l-13.8-.02-.1-3.01a.66.66 0 0 1 .66-.68h3.05q.5 0 .5-.5v-23.07q0-.64-.65-.64l-4.1.05-.25 6.04a.64.64 0 0 1-.63.61l-3.74.02q-.63 0-.63-.63v-9.47a.66.65 90 0 1 .65-.66h24.85q.75 0 .75.75v9.5q0 .5-.5.5h-3.75q-.5 0-.5-.5v-5.5a.62.6-84.2 0 0-.48-.6q-2.2-.47-4.73.01ZM189.2 171.06q-.9-1.47-.29-3.62a.67.66 10.5 0 1 .7-.48l2.17.17a.65.65 0 0 0 .71-.65l.02-22.63a1.1 1.1 0 0 0-1.1-1.1h-1.97q-.68 0-.67-.68l.04-3.34q12.81.58 16.42.39c9.6-.49 13.42 10.75 4.93 14.98q-.66.33.02.62c6.1 2.69 7.04 11.11 1.83 14.5-4.56 2.97-17.21 1.87-22.81 1.84Zm9.31-27.42-.02 8.18a.89.89 0 0 0 .88.9l4.49.01a4.88 4.5.2 0 0 4.9-4.48v-.96a4.88 4.5.2 0 0-4.86-4.52l-4.49-.01a.89.89 0 0 0-.9.88Zm-.01 13.65v9.08a.8.8 0 0 0 .8.8h4.71a5.49 5.09 0 0 0 5.49-5.09v-.5a5.49 5.09 0 0 0-5.49-5.09h-4.71a.8.8 0 0 0-.8.8ZM218.31 140.8q-.55.57-.23 1.41.16.42-.16.74l-.2.2q-.33.33-.44-.12l-.31-1.17a1.47 1.47 0 0 1 2.65-1.18q.82 1.23-.04 2.28a.34.34 0 0 1-.61-.2l-.05-1.73a.35.35 0 0 0-.61-.23Z"/><path fill="#cacece" fill-opacity=".929" d="M173.06 143.44c7.05 3.91 6.38 24.87-4.86 24.25-12.82-.7-9.51-32.24 4.86-24.25Zm2.93 5.23c-2.26-8.36-12.48-7.26-14.24.58-.89 3.96-1.31 13.82 3.05 16.69q4.53 2.98 8.84-1.08c4.17-3.91 3.87-10.13 2.81-15.61q-.04-.2-.2-.27-.2-.09-.26-.31Z"/><path fill="#cbcccc" fill-opacity=".804" d="M176.25 148.98q.16.07.2.27c1.06 5.48 1.36 11.7-2.81 15.61q-4.31 4.06-8.84 1.08c-4.36-2.87-3.94-12.73-3.05-16.69 1.76-7.84 11.98-8.94 14.24-.58q.06.22.26.31ZM198.51 143.64a.89.89 0 0 1 .9-.88l4.49.01a4.88 4.5.2 0 1 4.86 4.52v.96a4.88 4.5.2 0 1-4.9 4.48l-4.49-.01a.89.89 0 0 1-.88-.9l.02-8.18Z"/><path fill="#cacece" fill-opacity=".929" d="m130.5 143.09 4.1-.05q.65 0 .65.64v23.07q0 .5-.5.5h-3.05a.66.66 0 0 0-.66.68l.1 3.01q-1.05-1.24-.53-3.88.11-.56.68-.56h2.96q.5 0 .5-.5v-22.02q0-.52-.52-.57l-3.73-.32ZM141.54 143.16l.24 22.64q0 .65.65.64 1.32 0 2.06.72l-2.64-.01q-.54-.01-.54-.55l.23-23.44Z"/><path fill="#cbcccc" fill-opacity=".804" d="M198.5 157.29a.8.8 0 0 1 .8-.8h4.71a5.49 5.09 0 0 1 5.49 5.09v.5a5.49 5.09 0 0 1-5.49 5.09h-4.71a.8.8 0 0 1-.8-.8v-9.08Z"/><path fill="#cacece" fill-opacity=".929" d="M111.29 209.51q2.17-15.6 8.82-30.14a.44.43-78.3 0 0-.4-.62l-5.09.01a.71.69-83.8 0 0-.68.56c-2.39 12.01-2.76 20.84-3.95 31.46q-.2-16.04 3.48-31.8a.94.93 6.6 0 1 .91-.72l5.53-.01a.69.69 0 0 1 .68.8q-.25 1.52-1.35 3.99-4.62 10.37-7.95 26.47Z"/><path fill="#d31246" d="M111.29 209.51q-.74 4.09-1.3 1.27c1.19-10.62 1.56-19.45 3.95-31.46a.71.69-83.8 0 1 .68-.56l5.09-.01a.44.43-78.3 0 1 .4.62q-6.65 14.54-8.82 30.14Z"/><path fill="#cacece" fill-opacity=".929" d="m177.2 180.49-.21 2.84q-.04.53-.57.46c-4.31-.63-4.32 5.02-1.48 6.7q-1.34.11-2.17-1.68a.38.38 0 0 0-.71.05l-.35 1.17q-.11.4-.49.57-2.75 1.19-4.74-1.03-.27-.3-.58-.05l-1.63 1.37a.79.78 47.3 0 1-1.05-.05q-1.17-1.19-2.63-.42l-.2-4.65q-.02-.42.38-.53.68-.19.92-.83.21-.54-.32-.79l-.44-.2a.55.54-60.4 0 1-.22-.8l1.14-1.66a.54.54 0 0 0-.78-.74l-1.32 1.01q-.54-.57.48-1.31a1.01.99-56.3 0 1 .81-.17l3.91.88a.75.75 0 0 1 .56.9q-.15.69.26 1.03c.62.51 3.77.39 5.28 1.37q.4.27.55.73l.21.66a.47.46-44.7 0 0 .89 0q.81-2.4 3.41-2.15a.43.43 0 0 0 .46-.52q-.36-1.66.63-2.16Zm-13.7.5a.6.59-1.4 0 0-.48.5l-.03.26a.9.66-43.9 0 0 1.57-.21q.16-.78-1.06-.55Zm4.68 6.35 2.37.17a.63.63 0 0 0 .66-.5q.36-1.72-.86-2.84a2.06 2.06 0 0 0-3.2.52c-1.83 3.3 1.4 8.26 3.92 5.06a.49.49 0 0 0-.59-.74l-.85.41q-.66.31-1.1-.27l-.78-1.02a.5.49 73.7 0 1 .43-.79Zm-3.704-3.046a.27.27 0 0 0-.263-.276l-.66-.015a.27.27 0 0 0-.276.264l-.133 5.859a.27.27 0 0 0 .263.276l.66.015a.27.27 0 0 0 .276-.264l.133-5.859Z"/><path fill="#005188" d="m160.59 190.42-1.85-.3q1.24-3.09-.04-5.63-.24-.47.1-.87.94-1.08.95-2.39l1.32-1.01a.54.54 0 0 1 .78.74l-1.14 1.66a.55.54-60.4 0 0 .22.8l.44.2q.53.25.32.79-.24.64-.92.83-.4.11-.38.53l.2 4.65Z"/><path fill="#cacece" fill-opacity=".929" d="M150.92 182q.07 1.19-.46 1.68c-.43.4-2.96.03-3.92.29q-.5.13-.5.65l-.04 5.18q-1.27-.68-1.85.19-.26.37-.67.55-1.98.87-3.98-.11-.49-.24-.99 0c-9.79 4.67-8.19-13.76-.41-9.52a1.26 1.26 0 0 1-.91 2.33l-1.15-.28a1.01.99 24.1 0 0-1.07.4q-1.19 1.74-.65 3.9.15.6.76.73l3 .65a.38.37 1.7 0 0 .45-.42q-.41-2.67 1.31-4.7.38-.44.96-.52 2.09-.27 3.42 1.36a.69.68-42.7 0 0 1.03.04l.92-1.01a.68.66 27 0 1 .65-.2q2.73.58 4.1-1.19Zm-13.38 7.04c-5.86 1.09-5.27-7.89-.36-6.35a.43.43 0 0 0 .5-.63l-.41-.68q-.23-.38-.68-.35c-7.34.48-4.63 12.03 1.3 9.05a.55.55 0 0 0-.35-1.04Zm3.64-1.66q.87-.24 1.52.07a1.04 1.03 5.2 0 0 1.45-1.2q-.6-2.22-2.19-2.51c-4.24-.77-3.7 7.89.72 6.72q.81-.21 1.04-.95a.39.39 0 0 0-.43-.49l-1.69.28a.99.98 32.8 0 1-.42-1.92Z"/><path fill="#cacece" fill-opacity=".929" d="M159.75 181.23q-.01 1.31-.95 2.39-.34.4-.1.87 1.28 2.54.04 5.63l.03-3.63a.51.5 86.6 0 0-.57-.51q-.43.06-.62.44-.12.25-.06.69.19 1.34.21 2.69a.79.78 76 0 1-.41.69q-1.08.58-2.07.08-.43-.22-.86.01-1.86 1.03-3.5-.6a1.31 1.29-68.2 0 1-.39-.93v-3.29q0-.73-.72-.6-2.42.43-2.07 3.08.25 1.97-.76 1.83l.28-4.15a.92.91 80.3 0 1 .54-.77l1.46-.64a1.2 1.2 0 0 1 1.68 1.01l.31 3.92q.05.62.64.77l1.28.32q.89.22.57-.64-.22-.6-.79-.76-.57-.15-.76-.71-.92-2.64.97-4 .58-.42-.05-.74-1.15-.58-1.35-1.72.84-.57 1.48.52a.92.91-69 0 0 1.66-.74l-.09-.27q-.12-.39.23-.6.42-.25 1.01-.07l-.2.22q-.71.77.34.96.16.03.3.13a.42.42 0 0 0 .55-.62l-.75-.87q.91-.42 1.35 1.5a.57.57 0 0 0 .73.41q.72-.25 1.41-1.3Zm-3.02 3.46q.11-.17.09-.23a.73.69-55.1 0 0-1.37.29l-.15 4.94q-.02.69.65.56l.41-.08q.64-.13.57-.77-.25-2.24-.26-4.5 0-.11.06-.21Z"/><path fill="#005188" d="M177.2 180.49q.29-.05.54.03.47.13.47.62l.12 8.47a.59.58-3.3 0 1-.52.58l-2.87.3c-2.84-1.68-2.83-7.33 1.48-6.7q.53.07.57-.46l.21-2.84Zm-1.578 8.5a1.98 1.48 90.8 0 0 1.508-1.96 1.98 1.48 90.8 0 0-1.452-2 1.98 1.48 90.8 0 0-1.508 1.96 1.98 1.48 90.8 0 0 1.452 2ZM156.02 180.8l.24-.18.75.87a.42.42 0 0 1-.55.62q-.14-.1-.3-.13-1.05-.19-.34-.96l.2-.22ZM163.5 180.99q1.22-.23 1.06.55a.9.66-43.9 0 1-1.57.21l.03-.26a.6.59-1.4 0 1 .48-.5ZM137.54 189.04a.55.55 0 0 1 .35 1.04c-5.93 2.98-8.64-8.57-1.3-9.05q.45-.03.68.35l.41.68a.43.43 0 0 1-.5.63c-4.91-1.54-5.5 7.44.36 6.35ZM150.92 182l.81-.04q.2 1.14 1.35 1.72.63.32.05.74-1.89 1.36-.97 4 .19.56.76.71.57.16.79.76.32.86-.57.64l-1.28-.32q-.59-.15-.64-.77l-.31-3.92a1.2 1.2 0 0 0-1.68-1.01l-1.46.64a.92.91 80.3 0 0-.54.77l-.28 4.15q-.26.15-.47.14-.15 0-.28-.13-.16-.15-.2-.28l.04-5.18q0-.52.5-.65c.96-.26 3.49.11 3.92-.29q.53-.49.46-1.68ZM167.75 188.13l.78 1.02q.44.58 1.1.27l.85-.41a.49.49 0 0 1 .59.74c-2.52 3.2-5.75-1.76-3.92-5.06a2.06 2.06 0 0 1 3.2-.52q1.22 1.12.86 2.84a.63.63 0 0 1-.66.5l-2.37-.17a.5.49 73.7 0 0-.43.79Zm1.31-1.73a.63.63 0 0 0 .94-.55v-.56q0-.36-.34-.48-.89-.31-1.42.33-.46.55.16.9l.66.36Z"/><path fill="#005188" d="M141.18 187.38a.99.98 32.8 0 0 .42 1.92l1.69-.28a.39.39 0 0 1 .43.49q-.23.74-1.04.95c-4.42 1.17-4.96-7.49-.72-6.72q1.59.29 2.19 2.51a1.04 1.03 5.2 0 1-1.45 1.2q-.65-.31-1.52-.07Zm1.43-2.18q-1.29-.96-2 .36-.4.72.43.7l1.25-.03a.57.57 0 0 0 .32-1.03ZM156.67 184.9q.01 2.26.26 4.5.07.64-.57.77l-.41.08q-.67.13-.65-.56l.15-4.94a.73.69-55.1 0 1 1.37-.29q.02.06-.09.23-.06.1-.06.21Z"/><rect width="1.2" height="6.4" x="-.6" y="-3.2" fill="#005188" rx=".27" transform="rotate(1.3 -8168.774 7313.004)"/><path fill="#cacece" fill-opacity=".929" d="M142.61 185.2a.57.57 0 0 1-.32 1.03l-1.25.03q-.83.02-.43-.7.71-1.32 2-.36ZM169.06 186.4l-.66-.36q-.62-.35-.16-.9.53-.64 1.42-.33.34.12.34.48v.56a.63.63 0 0 1-.94.55Z"/><ellipse fill="#cacece" fill-opacity=".929" rx="1.98" ry="1.48" transform="rotate(90.8 -4.383 180.112)"/></svg>